<?xml version="1.0" encoding="utf-8"?>
<!-- Generator: Adobe Illustrator 26.2.1, SVG Export Plug-In . SVG Version: 6.00 Build 0)  -->
<svg version="1.1" id="katman_1" xmlns="http://www.w3.org/2000/svg" xmlns:xlink="http://www.w3.org/1999/xlink" x="0px" y="0px"
	 viewBox="0 0 1000 1000" style="enable-background:new 0 0 1000 1000;" xml:space="preserve">
<style type="text/css">
	.st0{fill:#F7F7F7;}
	.st1{fill:#DF0818;}
	.st2{fill-rule:evenodd;clip-rule:evenodd;fill:#DF0517;}
</style>
<rect class="st0" width="1000" height="1000"/>
<path class="st1" d="M147.8,722.1h46.1l0.2,0.8c1.3,5.9,2.4,11.8,3.1,17.8c0.7,4.5,4.7,9.8,13.9,9.8h7.9
	c-4.6-35.3-21.3-82.4-30.9-99.6c-3.5-6.1-10.1-9.8-17.1-9.7h-8.6C145.6,660.3,125,725,125,740.8c0,6.7,2.8,9.7,9.2,9.7h7.7
	c1.7-9.7,3.6-19,5.7-27.7L147.8,722.1z M152.5,705.1c3.6-14.9,10.6-33,17.3-45l0.9-1.6l0.9,1.6c5.7,10.1,13.5,28.8,17.3,45l0.3,1.3
	h-37.1L152.5,705.1z"/>
<path class="st1" d="M300.4,750.5h4.8v-50c0-26-18.4-37.7-36.7-37.7c-26.6,0-38.4,18.3-38.4,36.5v37.9c0,7.8,5.9,13.3,14.2,13.3h5.4
	v-49.7c0-12.6,6.7-20.7,17-20.7c8.6,0,18.8,3.9,18.8,22.3v34.8C285.6,745.1,291.7,750.5,300.4,750.5z"/>
<path class="st1" d="M374.2,731.5c-3.5,1.9-8.6,2.8-15.5,2.8c-10,0-14.9-5.5-14.9-16.8v-35.4h18.5c8.7,0,12-5.7,12-9.3v-7.9h-30.4
	V645h-4c-2.8,0-6.5,2.2-9.4,5.7c-4.6,5.5-6.1,8.5-6.1,16.7V720c0,20.6,11,31.5,31.8,31.5c11.7,0,18.1-4.8,18.1-13.6L374.2,731.5z"/>
<path class="st1" d="M530,641.2h-2.2c-4.5,4-11.4,15.2-16.8,32l-13.4,41.2c-1,3.1-1.9,6.3-2.5,9.6l-1,5.4l-1-5.4
	c-1-5.2-3-11.8-6.3-21l-15.5-43.6c-4.1-11.5-14.9-18.2-29.6-18.2h-3.8c-3.9,21.8-8.8,70.5-8.8,95.5c0,8.5,5,13.8,12.9,13.8h6.8
	c0.1-19.8,1.9-63.9,4.9-80.1l0.6-3.5l1.4,3.3c1.7,4.1,4.3,10.7,6.2,16.3l15.9,47c3.7,11,9.7,17,16.9,17h5.5
	c2.9-4.3,6.1-11.4,8.7-19.1l15.6-47.8c1.2-3.8,2.7-7.3,4-10.4c0.4-1,0.8-2,1.2-2.9l1.4-3.5l0.6,3.7c1.8,11.1,4.2,51.7,4.2,66.2
	c0,8.9,4.7,13.8,13.3,13.8h7.4c-0.1-23.7-3.4-70.6-5.4-87.1C549.6,648.9,542.2,641.2,530,641.2z"/>
<path class="st1" d="M611.4,752.5c20.6,0,30.7-6.2,30.7-18.8v-5.2c-7.6,6.4-18.6,7.7-26.6,7.7c-13.6,0-23.9-7.6-25.6-19l-0.2-1.2
	h15.5c29.2,0,40.1-5.5,40.1-20.2c0-21.4-17.5-32.9-34.1-32.9c-25,0-41.9,18.7-41.9,46.6C569.4,736.4,590.8,752.5,611.4,752.5z
	 M589.9,698.7c0.5-11.2,8.9-19.7,19.4-19.7c11.2,0,17.6,5.2,17.6,14.2c0,7.4-5.9,9.5-26.4,9.5h-10.9L589.9,698.7z"/>
<path class="st1" d="M696.5,752.5c27.2,0,41.1-13.9,41.1-41.4v-61.8c0-6.3-2.4-13.7-13.9-13.7h-5.6v45l-2-4.5
	c-3.3-7.3-12.6-13.2-20.8-13.2c-24.1,0-38.5,17.3-38.5,46.4C656.8,733.1,674.6,752.5,696.5,752.5z M695.4,679.1
	c8.3,0,22.3,4,22.3,31c0,17.3-6.3,26.1-18.6,26.1c-13.5,0-23-12.8-23-31.1C676.1,689.8,684,679.1,695.4,679.1L695.4,679.1z"/>
<path class="st1" d="M797.3,735.5h-3c-10.5,0-14.4-3.4-14.4-12.6v-41c0-10.1-4.9-15.2-14.5-15.2h-5.1V725c0,17.2,8.7,26.3,25.1,26.3
	c8.7,0,12-3.3,12-12.1L797.3,735.5z"/>
<path class="st1" d="M769.9,633.1c-6.5,0-11.7,5.3-11.7,11.7c0,6.5,5.2,11.7,11.7,11.7c6.5-0.1,11.7-5.3,11.8-11.8
	C781.7,638.3,776.4,633.1,769.9,633.1z"/>
<path class="st1" d="M875,701.5c0-31.7-19.6-38.3-36-38.3c-21.3,0-30.8,10.3-30.8,20.4v5.1c4.5-4.7,13.8-9.3,27.6-9.3
	c12,0,19.9,2.9,19.9,17.2v2.2H847c-27.8,0-42.5,9.1-42.5,26.4c0,15.8,14,26.8,34.1,26.8h4.4c18.9,0,32.1-12.5,32.1-30.3L875,701.5z
	 M855.8,721.8c0,9.7-5.1,14.5-15,14.5s-16.2-4.5-16.2-11.9c0-8.6,6.5-12.1,22.4-12.1h8.9L855.8,721.8z"/>
<path class="st2" d="M838.8,663.3c-21.4,0-30.8,10.4-30.8,20.7v5.2c4.6-4.7,13.8-9.4,27.6-9.4c11.9,0,19.9,2.9,19.9,17.3v2.2h-8.7
	c-27.8,0-42.5,9.2-42.5,26.7c0,15.9,14,27.1,34,27.1h4.5c18.9,0,32.1-12.7,32.1-30.7v-20.3C874.8,670,855.2,663.3,838.8,663.3z
	 M855.6,722.8c0,9.8-5.1,14.7-15,14.7s-16.2-4.5-16.2-12.1c0-8.7,6.4-12.2,22.4-12.2h8.8V722.8z"/>
<path class="st2" d="M769.7,632.9c-3,0.1-5.9,1.5-8,3.7s-3.3,5.2-3.3,8.2c0,3.1,1.2,6,3.3,8.2s4.9,3.5,8,3.7c3.1,0,6.1-1.3,8.3-3.6
	c2.2-2.2,3.5-5.2,3.5-8.4c0-1.6-0.3-3.1-0.9-4.5c-0.6-1.4-1.5-2.8-2.5-3.9c-1.1-1.1-2.4-2-3.8-2.6
	C772.8,633.2,771.3,632.8,769.7,632.9L769.7,632.9z"/>
<path class="st2" d="M797.1,736.6h-3c-10.5,0-14.4-3.4-14.4-12.8v-41.5c0-10.2-4.9-15.4-14.6-15.4H760v59c0,17.3,8.7,26.6,25.1,26.6
	c8.7,0,11.9-3.3,11.9-12.3L797.1,736.6L797.1,736.6z"/>
<path class="st2" d="M723.5,635.2h-5.6v45.7l-2-4.5c-2-3.9-5-7.2-8.6-9.5c-3.7-2.4-7.9-3.7-12.2-3.9c-24.1,0-38.5,17.6-38.5,47
	c0,24.1,17.8,43.7,39.8,43.7l0,0c27.3,0,41.1-14.1,41.1-41.9v-62.7C737.4,642.8,735,635.2,723.5,635.2z M699,737.2
	c-13.6,0-23-13-23-31.5c0-15.4,7.8-26.2,19.3-26.2l0,0c8.4,0,22.4,4.1,22.4,31.3C717.6,728.4,711.3,737.2,699,737.2z"/>
<path class="st2" d="M589.6,718.1l-0.2-1.2h15.5c29.2,0,40.1-5.5,40.1-20.5c0-21.6-17.6-33.4-34.1-33.4c-25.1,0-41.9,19-41.9,47.2
	c-0.1,5.6,0.8,11.2,2.8,16.4s5,10,8.8,14s8.4,7.3,13.5,9.5c5.1,2.3,10.5,3.5,16,3.6c0.3,0,0.6,0,0.9,0l0,0c20.6,0,30.7-6.2,30.7-19
	v-5.3c-7.6,6.5-18.6,7.8-26.6,7.8C601.6,737.2,591.3,729.5,589.6,718.1z M589.6,699.2c0-5.2,2.1-10.2,5.7-14c3.6-3.7,8.6-5.9,13.7-6
	c11.2,0,17.6,5.3,17.6,14.4c0,7.5-5.9,9.6-26.4,9.6h-10.9L589.6,699.2z"/>
<path class="st2" d="M529.8,641.1h-2.1c-4.5,4-11.4,15.5-16.8,32.5l-13.5,41.6c-1,3.2-1.9,6.5-2.5,9.8l-1,5.4l-1-5.4
	c-1.6-7.2-3.7-14.3-6.3-21.2l-15.5-44.2c-4.1-11.7-15-18.4-29.6-18.4h-3.9c-5,32-7.9,64.3-8.8,96.7c0,8.7,5,13.9,12.9,13.9h6.8
	c0-20,1.9-64.7,4.9-81.1l0.6-3.6l1.4,3.4c1.7,4.1,4.3,10.8,6.2,16.5l15.9,47.6c3.7,11.1,9.7,17.3,16.9,17.3h5.5
	c3.7-6.1,6.6-12.6,8.7-19.4l15.6-48.6c1.2-3.8,2.7-7.4,4-10.5c0.5-1,0.9-2,1.2-2.9l1.4-3.5l0.6,3.8c1.8,11.2,4.3,52.3,4.3,67.1
	c0,9,4.7,13.9,13.3,13.9h7.4c0-23.9-3.4-71.4-5.3-88.2C549.3,648.9,542,641.1,529.8,641.1L529.8,641.1z"/>
<path class="st2" d="M373.9,732.5c-4.9,2.2-10.2,3.1-15.5,2.8c-10,0-15-5.6-15-17v-35.8h18.5c8.7,0,11.9-5.8,11.9-9.5v-8h-30.3
	v-20.1h-4c-1.9,0.3-3.7,0.9-5.3,1.9c-1.6,1-3,2.3-4.1,3.8c-2.2,2.2-3.9,4.8-4.9,7.8c-1.1,2.9-1.5,6-1.2,9.1v53.4
	c0,20.8,11,31.9,31.8,31.9c11.7,0,18.1-4.9,18.1-13.7V732.5L373.9,732.5z"/>
<path class="st2" d="M300.1,751.7h4.8v-50.6c0-26.3-18.4-38.1-36.7-38.1c-26.6,0-38.5,18.6-38.5,37v38.4c0,1.9,0.3,3.7,1.1,5.4
	c0.7,1.7,1.8,3.2,3.1,4.5s2.9,2.2,4.7,2.8c1.7,0.6,3.6,0.8,5.4,0.7h5.5v-50.3c0-12.8,6.7-21,17.1-21c8.6,0,18.8,3.9,18.8,22.6v35.2
	C285.2,746.2,291.4,751.7,300.1,751.7L300.1,751.7z"/>
<path class="st2" d="M187.7,650.9c-1.7-3-4.2-5.6-7.2-7.3s-6.4-2.6-9.9-2.5H162c-16.7,19.3-37.3,84.8-37.3,100.9
	c0,6.8,2.8,9.8,9.2,9.8h7.7c1.7-9.8,3.6-19.2,5.7-28l0.1-0.8h46.1l0.2,0.8c1.3,6,2.4,12,3.1,18c0.7,4.6,4.7,9.9,13.9,9.9h7.9
	C214,716,197.3,668.3,187.7,650.9z M151.9,707.1l0.3-1.3c3.9-15.9,9.7-31.2,17.3-45.6l0.9-1.6l0.9,1.6c7.6,14.4,13.4,29.7,17.4,45.6
	l0.3,1.3H151.9z"/>
<path class="st2" d="M658.4,278.8l-61.1,35.4c-4.8-3.3-9.7-6.2-14.9-8.8l51.7-36.7C642.2,271.6,650.3,275.2,658.4,278.8L658.4,278.8
	z"/>
<path class="st2" d="M617.5,263.1l-49.9,35.1c-6.5-3.3-13.2-6.2-20.1-8.5l45.7-33.8h0.3C601.7,257.8,609.7,260.2,617.5,263.1
	L617.5,263.1z"/>
<path class="st2" d="M575.1,251.6l-43.9,32.8c-6.5-2.1-13.1-3.8-19.8-5.2l37.8-31.8C557.6,248.6,566.3,249.9,575.1,251.6
	L575.1,251.6z"/>
<path class="st2" d="M500,195.7c-104.3,0-216.7,25-216.7,80v212.6c0.9,17.1,8,33.2,20,45.2c14.4,14.6,35.5,21.8,62.2,21.8
	c1.4,0.1,2.7-0.1,4.1-0.5c3,0,5.8-1.2,8-3.4c2.1-2.1,3.3-5,3.4-8.1V341.8c0.1-2.6-0.7-5.1-2.2-7.2s-3.6-3.6-6-4.4
	c-0.5-0.5-48.7-13-63.1-47.2c-2.9-7-1.9-15.2,3-20.9c21.2-24.3,98.5-43,187.4-43c93.2,0,173,20.4,190.2,46.3
	c3,4.5,3.4,10.3,1.5,15.4c-13.5,35.5-63.4,49.1-63.8,49.5c-2.5,0.6-4.8,2.1-6.4,4.2c-1.6,2.1-2.4,4.7-2.3,7.3v201.7
	c0,3,1.2,5.9,3.3,8s5,3.4,8,3.4c28.2-0.5,51.9-7.3,66.8-22.4c11.9-11.7,18.9-27.5,19.5-44.2V275.7
	C716.8,220.6,604.3,195.7,500,195.7z M357.7,350.1v181.4c-16.5-1-29.3-5.7-38-14.6c-7.8-7.5-12.6-17.7-13.4-28.6V318.4
	C321,332.5,338.5,343.4,357.7,350.1z M693.6,488.2c0,4.1-2,39-51.3,43.2V350.1c19.2-6.7,36.7-17.5,51.3-31.7V488.2z"/>
<path class="st2" d="M576.8,409.4c-2.6-4.1-6.2-7.5-10.4-9.8l0,0l-90.9-52.4c-3.9-2.8-8.6-4.4-13.4-4.7c-4.8-0.3-9.6,0.8-13.8,3.1
	c-4,2.6-7.2,6.3-9.4,10.6c-2.2,4.3-3.2,9.1-3,13.9v105.5c-0.4,4.8,0.6,9.7,2.8,14c2.2,4.3,5.5,7.9,9.6,10.5
	c3.4,2.1,7.3,3.2,11.3,3.1c5.6-0.2,11.1-1.8,15.9-4.7l90.9-52.5c4.2-2.2,7.8-5.4,10.4-9.4l0.1-0.1c4.8-7.5,5.2-17.2,1.1-25.1
	C577.5,410.7,577.1,410,576.8,409.4z M553.2,426.3L465,476.8c-2.7,1.5-6-0.4-6-3.5V371.8c0-3.1,3.4-5,6-3.5l88.2,51
	C555.9,420.9,555.9,424.8,553.2,426.3z"/>
<path class="st2" d="M338.5,275.2c0,0,70.9-14.2,155.2,0l35.4-29.9C529.1,245.3,433.8,234.1,338.5,275.2z"/>
</svg>
